<?xml version="1.0" standalone="no"?>
<!DOCTYPE svg PUBLIC "-//W3C//DTD SVG 20010904//EN"
 "http://www.w3.org/TR/2001/REC-SVG-20010904/DTD/svg10.dtd">
<svg version="1.0" xmlns="http://www.w3.org/2000/svg"
 width="182.000000pt" height="284.000000pt" viewBox="0 0 182.000000 284.000000"
 preserveAspectRatio="xMidYMid meet">

<g transform="translate(0.000000,284.000000) scale(0.100000,-0.100000)"
fill="#000000" stroke="none">
<path d="M595 2710 c-11 -4 -30 -18 -42 -31 -20 -23 -25 -42 -85 -326 -13 -61
-1 -102 40 -133 21 -17 40 -20 119 -20 92 0 94 0 82 21 -20 39 -12 115 18 171
53 97 166 153 332 164 78 6 202 -6 246 -22 14 -6 15 -2 9 32 -13 76 -29 108
-63 131 -34 23 -37 23 -335 22 -166 0 -310 -4 -321 -9z"/>
</g>
</svg>
